<?xml version="1.0" encoding="UTF-8"?>
<svg xmlns="http://www.w3.org/2000/svg" xmlns:xlink="http://www.w3.org/1999/xlink"
     width="720" height="231" viewBox="-290 -20 720 231">
<defs>
</defs>
<rect x="3" y="3" width="140" height="181" fill="#000000" fill-opacity="0.2" rx="2" ry="2" />
<path d="M0,0 H140 V30 H134 V70 H140 V181 H0 V70 H6 V30 H0 Z" fill="#ffffff" stroke="#808080" stroke-width="2" />
<path d="M0,30 L140,30" stroke="#808080" stroke-width="1" />
<text x="70.0" y="48.0" font-size="14" fontWeight="bold" font-family="Verdana, sans-serif" fill="#000000" font-style="italic" text-anchor="middle" dominant-baseline="central">AX_SPLIT_4</text>
<text x="70.0" y="62.0" font-size="10" fill="#000" font-family="Consolas, monospace" text-anchor="middle" dominant-baseline="central">1.0</text>
<rect x="-8.0" y="83.0" width="8" height="8" fill="#884488" stroke="none" />
<rect x="-6" y="83" width="4" height="8" fill="none" stroke="white" stroke-width="1" />
<text x="10" y="91" font-size="12" text-anchor="start" font-family="Consolas, monospace">IN</text>
<text x="-15" y="90" font-size="11" text-anchor="end" fill="#000" font-style="italic" font-family="Verdana, sans-serif">AX</text>
<rect x="140.0" y="83.0" width="8" height="8" fill="#884488" stroke="none" />
<rect x="142" y="83" width="4" height="8" fill="none" stroke="white" stroke-width="1" />
<text x="130" y="91" font-size="12" text-anchor="end" font-family="Consolas, monospace">OUT1</text>
<text x="155" y="90" font-size="11" text-anchor="start" fill="#000" font-style="italic" font-family="Verdana, sans-serif">AX</text>
<rect x="140.0" y="107.0" width="8" height="8" fill="#884488" stroke="none" />
<rect x="142" y="107" width="4" height="8" fill="none" stroke="white" stroke-width="1" />
<text x="130" y="115" font-size="12" text-anchor="end" font-family="Consolas, monospace">OUT2</text>
<text x="155" y="114" font-size="11" text-anchor="start" fill="#000" font-style="italic" font-family="Verdana, sans-serif">AX</text>
<rect x="140.0" y="131.0" width="8" height="8" fill="#884488" stroke="none" />
<rect x="142" y="131" width="4" height="8" fill="none" stroke="white" stroke-width="1" />
<text x="130" y="139" font-size="12" text-anchor="end" font-family="Consolas, monospace">OUT3</text>
<text x="155" y="138" font-size="11" text-anchor="start" fill="#000" font-style="italic" font-family="Verdana, sans-serif">AX</text>
<rect x="140.0" y="155.0" width="8" height="8" fill="#884488" stroke="none" />
<rect x="142" y="155" width="4" height="8" fill="none" stroke="white" stroke-width="1" />
<text x="130" y="163" font-size="12" text-anchor="end" font-family="Consolas, monospace">OUT4</text>
<text x="155" y="162" font-size="11" text-anchor="start" fill="#000" font-style="italic" font-family="Verdana, sans-serif">AX</text>
</svg>