<?xml version="1.0" encoding="UTF-8"?>
<svg xmlns="http://www.w3.org/2000/svg" xmlns:xlink="http://www.w3.org/1999/xlink"
     width="600" height="228" viewBox="-250 -10 600 228">
<defs>
</defs>
<path d="M0,0 H100 V126 H90 V208 H10 V126 H0 Z" fill="#f5f5f5" stroke="#404040" stroke-width="2" />
<path d="M0,30 L100,30" stroke="#404040" stroke-width="1" />
<text x="50.0" y="20" font-size="14" fontWeight="bold" fill="#000000" font-family="Consolas, monospace" text-anchor="middle" dominant-baseline="central">E_CTUD</text>
<path d="M-10,45 L0,45" stroke="#5cb85c" stroke-width="2" />
<path d="M0,40 L5,45 L0,50 Z" fill="#5cb85c" stroke="none" />
<text x="5" y="49" font-size="12" text-anchor="start" fill="#000000" font-family="Consolas, monospace">CU</text>
<text x="-20" y="49" font-size="11" text-anchor="end" fill="#666666" font-family="Consolas, monospace" font-style="italic">Event</text>
<text x="-90" y="49" font-size="10" text-anchor="end" fill="#666666" font-family="Consolas, monospace">Count Up</text>
<path d="M-10,69 L0,69" stroke="#5cb85c" stroke-width="2" />
<path d="M0,64 L5,69 L0,74 Z" fill="#5cb85c" stroke="none" />
<text x="5" y="73" font-size="12" text-anchor="start" fill="#000000" font-family="Consolas, monospace">CD</text>
<text x="-20" y="73" font-size="11" text-anchor="end" fill="#666666" font-family="Consolas, monospace" font-style="italic">Event</text>
<text x="-90" y="73" font-size="10" text-anchor="end" fill="#666666" font-family="Consolas, monospace">Count Down</text>
<path d="M-10,93 L0,93" stroke="#5cb85c" stroke-width="2" />
<path d="M0,88 L5,93 L0,98 Z" fill="#5cb85c" stroke="none" />
<text x="5" y="97" font-size="12" text-anchor="start" fill="#000000" font-family="Consolas, monospace">R</text>
<text x="-20" y="97" font-size="11" text-anchor="end" fill="#666666" font-family="Consolas, monospace" font-style="italic">Event</text>
<text x="-90" y="97" font-size="10" text-anchor="end" fill="#666666" font-family="Consolas, monospace">Reset</text>
<path d="M-10,117 L0,117" stroke="#5cb85c" stroke-width="2" />
<path d="M0,112 L5,117 L0,122 Z" fill="#5cb85c" stroke="none" />
<text x="5" y="121" font-size="12" text-anchor="start" fill="#000000" font-family="Consolas, monospace">LD</text>
<text x="-20" y="121" font-size="11" text-anchor="end" fill="#666666" font-family="Consolas, monospace" font-style="italic">Event</text>
<text x="-90" y="121" font-size="10" text-anchor="end" fill="#666666" font-family="Consolas, monospace">Load</text>
<path d="M100,45 L110,45" stroke="#5cb85c" stroke-width="2" />
<path d="M100,40 L95,45 L100,50 Z" fill="#5cb85c" stroke="none" />
<text x="95" y="49" font-size="12" text-anchor="end" fill="#000000" font-family="Consolas, monospace">CO</text>
<text x="120" y="49" font-size="11" text-anchor="start" fill="#666666" font-family="Consolas, monospace" font-style="italic">Event</text>
<text x="190" y="49" font-size="10" text-anchor="start" fill="#666666" font-family="Consolas, monospace">Carry Out</text>
<path d="M100,69 L110,69" stroke="#5cb85c" stroke-width="2" />
<path d="M100,64 L95,69 L100,74 Z" fill="#5cb85c" stroke="none" />
<text x="95" y="73" font-size="12" text-anchor="end" fill="#000000" font-family="Consolas, monospace">RO</text>
<text x="120" y="73" font-size="11" text-anchor="start" fill="#666666" font-family="Consolas, monospace" font-style="italic">Event</text>
<text x="190" y="73" font-size="10" text-anchor="start" fill="#666666" font-family="Consolas, monospace">Reset Out</text>
<path d="M-10,141 L0,141" stroke="#0275d8" stroke-width="2" />
<path d="M0,136 L5,141 L0,146 Z" fill="#0275d8" stroke="none" />
<text x="5" y="145" font-size="12" text-anchor="start" fill="#000000" font-family="Consolas, monospace">PV</text>
<text x="-20" y="145" font-size="11" text-anchor="end" fill="#0275d8" font-family="Consolas, monospace" font-style="italic">UINT</text>
<text x="-90" y="145" font-size="10" text-anchor="end" fill="#666666" font-family="Consolas, monospace">Preset Value</text>
<path d="M90,141 L100,141" stroke="#0275d8" stroke-width="2" />
<path d="M90,136 L85,141 L90,146 Z" fill="#0275d8" stroke="none" />
<text x="85" y="145" font-size="12" text-anchor="end" fill="#000000" font-family="Consolas, monospace">QU</text>
<text x="110" y="145" font-size="11" text-anchor="start" fill="#0275d8" font-family="Consolas, monospace" font-style="italic">BOOL</text>
<text x="180" y="145" font-size="10" text-anchor="start" fill="#666666" font-family="Consolas, monospace">Up limit reached</text>
<path d="M90,165 L100,165" stroke="#0275d8" stroke-width="2" />
<path d="M90,160 L85,165 L90,170 Z" fill="#0275d8" stroke="none" />
<text x="85" y="169" font-size="12" text-anchor="end" fill="#000000" font-family="Consolas, monospace">QD</text>
<text x="110" y="169" font-size="11" text-anchor="start" fill="#0275d8" font-family="Consolas, monospace" font-style="italic">BOOL</text>
<text x="180" y="169" font-size="10" text-anchor="start" fill="#666666" font-family="Consolas, monospace">Down limit reached</text>
<path d="M90,189 L100,189" stroke="#0275d8" stroke-width="2" />
<path d="M90,184 L85,189 L90,194 Z" fill="#0275d8" stroke="none" />
<text x="85" y="193" font-size="12" text-anchor="end" fill="#000000" font-family="Consolas, monospace">CV</text>
<text x="110" y="193" font-size="11" text-anchor="start" fill="#0275d8" font-family="Consolas, monospace" font-style="italic">UINT</text>
<text x="180" y="193" font-size="10" text-anchor="start" fill="#666666" font-family="Consolas, monospace">Current Value</text>
</svg>