<?xml version="1.0" encoding="UTF-8"?>
<svg xmlns="http://www.w3.org/2000/svg" xmlns:xlink="http://www.w3.org/1999/xlink"
     width="188" height="160" viewBox="-20 -10 188 160">
<defs>
</defs>
<rect x="0" y="0" width="148" height="140" fill="#f0f0f0" stroke="#333333" stroke-width="2" rx="5" ry="5" />
<text x="74.0" y="20" font-size="14" fontWeight="bold" font-family="Arial, sans-serif" text-anchor="middle" dominant-baseline="central">E_CTUD</text>
<path d="M0,30 L148,30" stroke="#333333" stroke-width="1" />
<path d="M-10,46 L0,46" stroke="#d9534f" stroke-width="2" />
<rect x="-10" y="44" width="4" height="4" fill="#d9534f" />
<text x="5" y="50" font-size="12" text-anchor="start" fill="#000000" font-family="Arial, sans-serif">CU</text>
<path d="M-10,66 L0,66" stroke="#d9534f" stroke-width="2" />
<rect x="-10" y="64" width="4" height="4" fill="#d9534f" />
<text x="5" y="70" font-size="12" text-anchor="start" fill="#000000" font-family="Arial, sans-serif">CD</text>
<path d="M-10,86 L0,86" stroke="#d9534f" stroke-width="2" />
<rect x="-10" y="84" width="4" height="4" fill="#d9534f" />
<text x="5" y="90" font-size="12" text-anchor="start" fill="#000000" font-family="Arial, sans-serif">R</text>
<path d="M-10,106 L0,106" stroke="#d9534f" stroke-width="2" />
<rect x="-10" y="104" width="4" height="4" fill="#d9534f" />
<text x="5" y="110" font-size="12" text-anchor="start" fill="#000000" font-family="Arial, sans-serif">LD</text>
<path d="M-10,131 L0,131" stroke="#000000" stroke-width="2" />
<text x="5" y="135" font-size="12" text-anchor="start" fill="#000000" font-family="Arial, sans-serif">PV</text>
<path d="M148,46 L158,46" stroke="#d9534f" stroke-width="2" />
<rect x="154" y="44" width="4" height="4" fill="#d9534f" />
<text x="143" y="50" font-size="12" text-anchor="end" fill="#000000" font-family="Arial, sans-serif">CO</text>
<path d="M148,66 L158,66" stroke="#d9534f" stroke-width="2" />
<rect x="154" y="64" width="4" height="4" fill="#d9534f" />
<text x="143" y="70" font-size="12" text-anchor="end" fill="#000000" font-family="Arial, sans-serif">RO</text>
<path d="M148,91 L158,91" stroke="#000000" stroke-width="2" />
<text x="143" y="95" font-size="12" text-anchor="end" fill="#000000" font-family="Arial, sans-serif">QU</text>
<path d="M148,111 L158,111" stroke="#000000" stroke-width="2" />
<text x="143" y="115" font-size="12" text-anchor="end" fill="#000000" font-family="Arial, sans-serif">QD</text>
<path d="M148,131 L158,131" stroke="#000000" stroke-width="2" />
<text x="143" y="135" font-size="12" text-anchor="end" fill="#000000" font-family="Arial, sans-serif">CV</text>
</svg>