<?xml version="1.0" encoding="UTF-8"?>
<svg xmlns="http://www.w3.org/2000/svg" xmlns:xlink="http://www.w3.org/1999/xlink"
     width="668" height="261" viewBox="-276 -20 668 261">
<defs>
</defs>
<path d="M0,0 H110 V139 H98 V221 H12 V139 H0 Z" fill="#f5f5f5" stroke="#606060" stroke-width="2" />
<path d="M0,35 L110,35" stroke="#606060" stroke-width="1" />
<text x="55.0" y="22" font-size="14" fontWeight="bold" font-family="Verdana, sans-serif" text-anchor="middle" dominant-baseline="central">E_CTUD</text>
<text x="55.0" y="55" font-size="11" fill="#888" font-family="Consolas, monospace" text-anchor="middle" dominant-baseline="central">3.0</text>
<path d="M0,47 L-5,47" stroke="#5cb85c" stroke-width="2" />
<rect x="-5" y="44.5" width="5" height="5" fill="#5cb85c" />
<text x="8" y="51" font-size="12" text-anchor="start" font-family="Consolas, monospace">CU</text>
<text x="-21" y="50" font-size="11" text-anchor="end" fill="#666" font-style="italic" font-family="Verdana, sans-serif">Event</text>
<text x="-91" y="50" font-size="11" text-anchor="end" fill="#404040" font-family="Verdana, sans-serif">Count Up</text>
<path d="M0,71 L-5,71" stroke="#5cb85c" stroke-width="2" />
<rect x="-5" y="68.5" width="5" height="5" fill="#5cb85c" />
<text x="8" y="75" font-size="12" text-anchor="start" font-family="Consolas, monospace">CD</text>
<text x="-21" y="74" font-size="11" text-anchor="end" fill="#666" font-style="italic" font-family="Verdana, sans-serif">Event</text>
<text x="-91" y="74" font-size="11" text-anchor="end" fill="#404040" font-family="Verdana, sans-serif">Count Down</text>
<path d="M0,95 L-5,95" stroke="#5cb85c" stroke-width="2" />
<rect x="-5" y="92.5" width="5" height="5" fill="#5cb85c" />
<text x="8" y="99" font-size="12" text-anchor="start" font-family="Consolas, monospace">R</text>
<text x="-21" y="98" font-size="11" text-anchor="end" fill="#666" font-style="italic" font-family="Verdana, sans-serif">Event</text>
<text x="-91" y="98" font-size="11" text-anchor="end" fill="#404040" font-family="Verdana, sans-serif">Reset</text>
<path d="M0,119 L-5,119" stroke="#5cb85c" stroke-width="2" />
<rect x="-5" y="116.5" width="5" height="5" fill="#5cb85c" />
<text x="8" y="123" font-size="12" text-anchor="start" font-family="Consolas, monospace">LD</text>
<text x="-21" y="122" font-size="11" text-anchor="end" fill="#666" font-style="italic" font-family="Verdana, sans-serif">Event</text>
<text x="-91" y="122" font-size="11" text-anchor="end" fill="#404040" font-family="Verdana, sans-serif">Load</text>
<path d="M12,151 L7,151" stroke="#0066cc" stroke-width="2" />
<rect x="7" y="148.5" width="5" height="5" fill="#0066cc" />
<text x="20" y="155" font-size="12" text-anchor="start" font-family="Consolas, monospace">PV</text>
<text x="-9" y="154" font-size="11" text-anchor="end" fill="#0066cc" font-style="italic" font-family="Verdana, sans-serif">UINT</text>
<text x="-79" y="154" font-size="11" text-anchor="end" fill="#404040" font-family="Verdana, sans-serif">Preset Value</text>
<path d="M110,47 L115,47" stroke="#5cb85c" stroke-width="2" />
<rect x="110" y="44.5" width="5" height="5" fill="#5cb85c" />
<text x="102" y="51" font-size="12" text-anchor="end" font-family="Consolas, monospace">CO</text>
<text x="137" y="50" font-size="11" text-anchor="start" fill="#666" font-style="italic" font-family="Verdana, sans-serif">Event</text>
<text x="207" y="50" font-size="11" text-anchor="start" fill="#404040" font-family="Verdana, sans-serif">Count Output Event</text>
<path d="M110,71 L115,71" stroke="#5cb85c" stroke-width="2" />
<rect x="110" y="68.5" width="5" height="5" fill="#5cb85c" />
<text x="102" y="75" font-size="12" text-anchor="end" font-family="Consolas, monospace">RO</text>
<text x="137" y="74" font-size="11" text-anchor="start" fill="#666" font-style="italic" font-family="Verdana, sans-serif">Event</text>
<text x="207" y="74" font-size="11" text-anchor="start" fill="#404040" font-family="Verdana, sans-serif">Reset Output Event</text>
<path d="M110,95 L115,95" stroke="#5cb85c" stroke-width="2" />
<rect x="110" y="92.5" width="5" height="5" fill="#5cb85c" />
<text x="102" y="99" font-size="12" text-anchor="end" font-family="Consolas, monospace">LDO</text>
<text x="137" y="98" font-size="11" text-anchor="start" fill="#666" font-style="italic" font-family="Verdana, sans-serif">Event</text>
<path d="M98,151 L103,151" stroke="#0066cc" stroke-width="2" />
<rect x="98" y="148.5" width="5" height="5" fill="#0066cc" />
<text x="90" y="155" font-size="12" text-anchor="end" font-family="Consolas, monospace">QU</text>
<text x="125" y="154" font-size="11" text-anchor="start" fill="#0066cc" font-style="italic" font-family="Verdana, sans-serif">BOOL</text>
<text x="195" y="154" font-size="11" text-anchor="start" fill="#404040" font-family="Verdana, sans-serif">CV &gt;=PV</text>
<path d="M98,175 L103,175" stroke="#0066cc" stroke-width="2" />
<rect x="98" y="172.5" width="5" height="5" fill="#0066cc" />
<text x="90" y="179" font-size="12" text-anchor="end" font-family="Consolas, monospace">QD</text>
<text x="125" y="178" font-size="11" text-anchor="start" fill="#0066cc" font-style="italic" font-family="Verdana, sans-serif">BOOL</text>
<text x="195" y="178" font-size="11" text-anchor="start" fill="#404040" font-family="Verdana, sans-serif">CV &lt;= 0</text>
<path d="M98,199 L103,199" stroke="#0066cc" stroke-width="2" />
<rect x="98" y="196.5" width="5" height="5" fill="#0066cc" />
<text x="90" y="203" font-size="12" text-anchor="end" font-family="Consolas, monospace">CV</text>
<text x="125" y="202" font-size="11" text-anchor="start" fill="#0066cc" font-style="italic" font-family="Verdana, sans-serif">UINT</text>
<text x="195" y="202" font-size="11" text-anchor="start" fill="#404040" font-family="Verdana, sans-serif">Counter Value</text>
<path d="M-10,47 L-10,151" stroke="#404040" stroke-width="1" />
<path d="M0,47 L-10,47" stroke="#404040" stroke-width="1" />
<rect x="-12" y="45" width="4" height="4" fill="white" stroke="#404040" stroke-width="1" />
<path d="M-10,151 L7,151" stroke="#404040" stroke-width="1" />
<rect x="-12" y="149" width="4" height="4" fill="white" stroke="#404040" stroke-width="1" />
<path d="M-16,119 L-16,151" stroke="#404040" stroke-width="1" />
<path d="M0,119 L-16,119" stroke="#404040" stroke-width="1" />
<rect x="-18" y="117" width="4" height="4" fill="white" stroke="#404040" stroke-width="1" />
<path d="M-16,151 L7,151" stroke="#404040" stroke-width="1" />
<rect x="-18" y="149" width="4" height="4" fill="white" stroke="#404040" stroke-width="1" />
<path d="M120,47 L120,199" stroke="#404040" stroke-width="1" />
<path d="M110,47 L120,47" stroke="#404040" stroke-width="1" />
<rect x="118" y="45" width="4" height="4" fill="white" stroke="#404040" stroke-width="1" />
<path d="M103,151 L120,151" stroke="#404040" stroke-width="1" />
<rect x="118" y="149" width="4" height="4" fill="white" stroke="#404040" stroke-width="1" />
<path d="M103,199 L120,199" stroke="#404040" stroke-width="1" />
<rect x="118" y="197" width="4" height="4" fill="white" stroke="#404040" stroke-width="1" />
<path d="M103,175 L120,175" stroke="#404040" stroke-width="1" />
<rect x="118" y="173" width="4" height="4" fill="white" stroke="#404040" stroke-width="1" />
<path d="M126,71 L126,199" stroke="#404040" stroke-width="1" />
<path d="M110,71 L126,71" stroke="#404040" stroke-width="1" />
<rect x="124" y="69" width="4" height="4" fill="white" stroke="#404040" stroke-width="1" />
<path d="M103,151 L126,151" stroke="#404040" stroke-width="1" />
<rect x="124" y="149" width="4" height="4" fill="white" stroke="#404040" stroke-width="1" />
<path d="M103,199 L126,199" stroke="#404040" stroke-width="1" />
<rect x="124" y="197" width="4" height="4" fill="white" stroke="#404040" stroke-width="1" />
<path d="M103,175 L126,175" stroke="#404040" stroke-width="1" />
<rect x="124" y="173" width="4" height="4" fill="white" stroke="#404040" stroke-width="1" />
<path d="M132,95 L132,199" stroke="#404040" stroke-width="1" />
<path d="M110,95 L132,95" stroke="#404040" stroke-width="1" />
<rect x="130" y="93" width="4" height="4" fill="white" stroke="#404040" stroke-width="1" />
<path d="M103,151 L132,151" stroke="#404040" stroke-width="1" />
<rect x="130" y="149" width="4" height="4" fill="white" stroke="#404040" stroke-width="1" />
<path d="M103,175 L132,175" stroke="#404040" stroke-width="1" />
<rect x="130" y="173" width="4" height="4" fill="white" stroke="#404040" stroke-width="1" />
<path d="M103,199 L132,199" stroke="#404040" stroke-width="1" />
<rect x="130" y="197" width="4" height="4" fill="white" stroke="#404040" stroke-width="1" />
</svg>