<?xml version="1.0" encoding="UTF-8"?>
<svg xmlns="http://www.w3.org/2000/svg" xmlns:xlink="http://www.w3.org/1999/xlink"
     width="740" height="286" viewBox="-306 -20 740 286">
<defs>
</defs>
<path d="M0,0 H120 V141 H114 V149 H120 V236 H0 V149 H6 V141 H0 Z" fill="#f2f2f2" stroke="#404040" stroke-width="2" />
<path d="M0,35 L120,35" stroke="#404040" stroke-width="1" />
<text x="60.0" y="25" font-size="14" fontWeight="bold" font-family="Verdana, sans-serif" text-anchor="middle" dominant-baseline="central">E_CTUD</text>
<text x="60.0" y="55" font-size="10" fill="#999" font-family="Consolas, monospace" text-anchor="middle" dominant-baseline="central">3.0</text>
<path d="M-5,42 L-5,52 L0,47 Z" fill="#5cb85c" stroke="none" />
<text x="8" y="51" font-size="12" text-anchor="start" font-family="Consolas, monospace">CU</text>
<text x="-31" y="50" font-size="11" text-anchor="end" fill="#888" font-style="italic" font-family="Verdana, sans-serif">Event</text>
<text x="-101" y="50" font-size="11" text-anchor="end" fill="#666666" font-family="Verdana, sans-serif">Count Up</text>
<path d="M-5,66 L-5,76 L0,71 Z" fill="#5cb85c" stroke="none" />
<text x="8" y="75" font-size="12" text-anchor="start" font-family="Consolas, monospace">CD</text>
<text x="-31" y="74" font-size="11" text-anchor="end" fill="#888" font-style="italic" font-family="Verdana, sans-serif">Event</text>
<text x="-101" y="74" font-size="11" text-anchor="end" fill="#666666" font-family="Verdana, sans-serif">Count Down</text>
<path d="M-5,90 L-5,100 L0,95 Z" fill="#5cb85c" stroke="none" />
<text x="8" y="99" font-size="12" text-anchor="start" font-family="Consolas, monospace">R</text>
<text x="-31" y="98" font-size="11" text-anchor="end" fill="#888" font-style="italic" font-family="Verdana, sans-serif">Event</text>
<text x="-101" y="98" font-size="11" text-anchor="end" fill="#666666" font-family="Verdana, sans-serif">Reset</text>
<path d="M-5,114 L-5,124 L0,119 Z" fill="#5cb85c" stroke="none" />
<text x="8" y="123" font-size="12" text-anchor="start" font-family="Consolas, monospace">LD</text>
<text x="-31" y="122" font-size="11" text-anchor="end" fill="#888" font-style="italic" font-family="Verdana, sans-serif">Event</text>
<text x="-101" y="122" font-size="11" text-anchor="end" fill="#666666" font-family="Verdana, sans-serif">Load</text>
<path d="M-5,161 L-5,171 L0,166 Z" fill="#0066cc" stroke="none" />
<text x="8" y="170" font-size="12" text-anchor="start" font-family="Consolas, monospace">PV</text>
<text x="-31" y="169" font-size="11" text-anchor="end" fill="#0066cc" font-style="italic" font-family="Verdana, sans-serif">UINT</text>
<text x="-101" y="169" font-size="11" text-anchor="end" fill="#666666" font-family="Verdana, sans-serif">Preset Value</text>
<path d="M120,42 L120,52 L125,47 Z" fill="#5cb85c" stroke="none" />
<text x="112" y="51" font-size="12" text-anchor="end" font-family="Consolas, monospace">CO</text>
<text x="159" y="50" font-size="11" text-anchor="start" fill="#888" font-style="italic" font-family="Verdana, sans-serif">Event</text>
<text x="229" y="50" font-size="11" text-anchor="start" fill="#666666" font-family="Verdana, sans-serif">Count Output Event</text>
<path d="M120,66 L120,76 L125,71 Z" fill="#5cb85c" stroke="none" />
<text x="112" y="75" font-size="12" text-anchor="end" font-family="Consolas, monospace">RO</text>
<text x="159" y="74" font-size="11" text-anchor="start" fill="#888" font-style="italic" font-family="Verdana, sans-serif">Event</text>
<text x="229" y="74" font-size="11" text-anchor="start" fill="#666666" font-family="Verdana, sans-serif">Reset Output Event</text>
<path d="M120,90 L120,100 L125,95 Z" fill="#5cb85c" stroke="none" />
<text x="112" y="99" font-size="12" text-anchor="end" font-family="Consolas, monospace">LDO</text>
<text x="159" y="98" font-size="11" text-anchor="start" fill="#888" font-style="italic" font-family="Verdana, sans-serif">Event</text>
<path d="M120,161 L120,171 L125,166 Z" fill="#0066cc" stroke="none" />
<text x="112" y="170" font-size="12" text-anchor="end" font-family="Consolas, monospace">QU</text>
<text x="159" y="169" font-size="11" text-anchor="start" fill="#0066cc" font-style="italic" font-family="Verdana, sans-serif">BOOL</text>
<text x="229" y="169" font-size="11" text-anchor="start" fill="#666666" font-family="Verdana, sans-serif">CV &gt;=PV</text>
<path d="M120,185 L120,195 L125,190 Z" fill="#0066cc" stroke="none" />
<text x="112" y="194" font-size="12" text-anchor="end" font-family="Consolas, monospace">QD</text>
<text x="159" y="193" font-size="11" text-anchor="start" fill="#0066cc" font-style="italic" font-family="Verdana, sans-serif">BOOL</text>
<text x="229" y="193" font-size="11" text-anchor="start" fill="#666666" font-family="Verdana, sans-serif">CV &lt;= 0</text>
<path d="M120,209 L120,219 L125,214 Z" fill="#0066cc" stroke="none" />
<text x="112" y="218" font-size="12" text-anchor="end" font-family="Consolas, monospace">CV</text>
<text x="159" y="217" font-size="11" text-anchor="start" fill="#0066cc" font-style="italic" font-family="Verdana, sans-serif">UINT</text>
<text x="229" y="217" font-size="11" text-anchor="start" fill="#666666" font-family="Verdana, sans-serif">Counter Value</text>
<path d="M-12,47 L-12,166" stroke="#404040" stroke-width="1" />
<path d="M0,47 L-12,47" stroke="#404040" />
<rect x="-14" y="45" width="4" height="4" fill="white" stroke="black" stroke-width="1" />
<path d="M-12,166 L-5,166" stroke="#404040" />
<rect x="-14" y="164" width="4" height="4" fill="white" stroke="black" stroke-width="1" />
<path d="M-20,119 L-20,166" stroke="#404040" stroke-width="1" />
<path d="M0,119 L-20,119" stroke="#404040" />
<rect x="-22" y="117" width="4" height="4" fill="white" stroke="black" stroke-width="1" />
<path d="M-20,166 L-5,166" stroke="#404040" />
<rect x="-22" y="164" width="4" height="4" fill="white" stroke="black" stroke-width="1" />
<path d="M132,47 L132,214" stroke="#404040" stroke-width="1" />
<path d="M120,47 L132,47" stroke="#404040" />
<rect x="130" y="45" width="4" height="4" fill="white" stroke="black" stroke-width="1" />
<path d="M125,166 L132,166" stroke="#404040" />
<rect x="130" y="164" width="4" height="4" fill="white" stroke="black" stroke-width="1" />
<path d="M125,214 L132,214" stroke="#404040" />
<rect x="130" y="212" width="4" height="4" fill="white" stroke="black" stroke-width="1" />
<path d="M125,190 L132,190" stroke="#404040" />
<rect x="130" y="188" width="4" height="4" fill="white" stroke="black" stroke-width="1" />
<path d="M140,71 L140,214" stroke="#404040" stroke-width="1" />
<path d="M120,71 L140,71" stroke="#404040" />
<rect x="138" y="69" width="4" height="4" fill="white" stroke="black" stroke-width="1" />
<path d="M125,166 L140,166" stroke="#404040" />
<rect x="138" y="164" width="4" height="4" fill="white" stroke="black" stroke-width="1" />
<path d="M125,214 L140,214" stroke="#404040" />
<rect x="138" y="212" width="4" height="4" fill="white" stroke="black" stroke-width="1" />
<path d="M125,190 L140,190" stroke="#404040" />
<rect x="138" y="188" width="4" height="4" fill="white" stroke="black" stroke-width="1" />
<path d="M148,95 L148,214" stroke="#404040" stroke-width="1" />
<path d="M120,95 L148,95" stroke="#404040" />
<rect x="146" y="93" width="4" height="4" fill="white" stroke="black" stroke-width="1" />
<path d="M125,166 L148,166" stroke="#404040" />
<rect x="146" y="164" width="4" height="4" fill="white" stroke="black" stroke-width="1" />
<path d="M125,190 L148,190" stroke="#404040" />
<rect x="146" y="188" width="4" height="4" fill="white" stroke="black" stroke-width="1" />
<path d="M125,214 L148,214" stroke="#404040" />
<rect x="146" y="212" width="4" height="4" fill="white" stroke="black" stroke-width="1" />
</svg>