<?xml version="1.0" encoding="UTF-8"?>
<svg xmlns="http://www.w3.org/2000/svg" xmlns:xlink="http://www.w3.org/1999/xlink"
     width="740" height="292" viewBox="-306 -20 740 292">
<defs>
</defs>
<path d="M0,0 H120 V154 H105 V242 H15 V154 H0 Z" fill="#f2f2f2" stroke="#404040" stroke-width="2" />
<path d="M0,40 L120,40" stroke="#404040" stroke-width="1" />
<text x="60.0" y="25" font-size="14" fontWeight="bold" font-family="Verdana, sans-serif" text-anchor="middle" dominant-baseline="central">E_CTUD</text>
<text x="60.0" y="60" font-size="10" fill="#999" font-family="Consolas, monospace" text-anchor="middle" dominant-baseline="central">3.0</text>
<path d="M-5,49 L-5,59 L0,54 Z" fill="#5cb85c" stroke="none" />
<text x="8" y="58" font-size="12" text-anchor="start" font-family="Consolas, monospace">CU</text>
<text x="-31" y="57" font-size="11" text-anchor="end" fill="#888" font-style="italic" font-family="Verdana, sans-serif">Event</text>
<text x="-101" y="57" font-size="11" text-anchor="end" fill="#666666" font-family="Verdana, sans-serif">Count Up</text>
<path d="M-5,75 L-5,85 L0,80 Z" fill="#5cb85c" stroke="none" />
<text x="8" y="84" font-size="12" text-anchor="start" font-family="Consolas, monospace">CD</text>
<text x="-31" y="83" font-size="11" text-anchor="end" fill="#888" font-style="italic" font-family="Verdana, sans-serif">Event</text>
<text x="-101" y="83" font-size="11" text-anchor="end" fill="#666666" font-family="Verdana, sans-serif">Count Down</text>
<path d="M-5,101 L-5,111 L0,106 Z" fill="#5cb85c" stroke="none" />
<text x="8" y="110" font-size="12" text-anchor="start" font-family="Consolas, monospace">R</text>
<text x="-31" y="109" font-size="11" text-anchor="end" fill="#888" font-style="italic" font-family="Verdana, sans-serif">Event</text>
<text x="-101" y="109" font-size="11" text-anchor="end" fill="#666666" font-family="Verdana, sans-serif">Reset</text>
<path d="M-5,127 L-5,137 L0,132 Z" fill="#5cb85c" stroke="none" />
<text x="8" y="136" font-size="12" text-anchor="start" font-family="Consolas, monospace">LD</text>
<text x="-31" y="135" font-size="11" text-anchor="end" fill="#888" font-style="italic" font-family="Verdana, sans-serif">Event</text>
<text x="-101" y="135" font-size="11" text-anchor="end" fill="#666666" font-family="Verdana, sans-serif">Load</text>
<path d="M10,163 L10,173 L15,168 Z" fill="#0066cc" stroke="none" />
<text x="23" y="172" font-size="12" text-anchor="start" font-family="Consolas, monospace">PV</text>
<text x="-16" y="171" font-size="11" text-anchor="end" fill="#0066cc" font-style="italic" font-family="Verdana, sans-serif">UINT</text>
<text x="-86" y="171" font-size="11" text-anchor="end" fill="#666666" font-family="Verdana, sans-serif">Preset Value</text>
<path d="M120,49 L120,59 L125,54 Z" fill="#5cb85c" stroke="none" />
<text x="112" y="58" font-size="12" text-anchor="end" font-family="Consolas, monospace">CO</text>
<text x="159" y="57" font-size="11" text-anchor="start" fill="#888" font-style="italic" font-family="Verdana, sans-serif">Event</text>
<text x="229" y="57" font-size="11" text-anchor="start" fill="#666666" font-family="Verdana, sans-serif">Count Output Event</text>
<path d="M120,75 L120,85 L125,80 Z" fill="#5cb85c" stroke="none" />
<text x="112" y="84" font-size="12" text-anchor="end" font-family="Consolas, monospace">RO</text>
<text x="159" y="83" font-size="11" text-anchor="start" fill="#888" font-style="italic" font-family="Verdana, sans-serif">Event</text>
<text x="229" y="83" font-size="11" text-anchor="start" fill="#666666" font-family="Verdana, sans-serif">Reset Output Event</text>
<path d="M120,101 L120,111 L125,106 Z" fill="#5cb85c" stroke="none" />
<text x="112" y="110" font-size="12" text-anchor="end" font-family="Consolas, monospace">LDO</text>
<text x="159" y="109" font-size="11" text-anchor="start" fill="#888" font-style="italic" font-family="Verdana, sans-serif">Event</text>
<path d="M105,163 L105,173 L110,168 Z" fill="#0066cc" stroke="none" />
<text x="97" y="172" font-size="12" text-anchor="end" font-family="Consolas, monospace">QU</text>
<text x="144" y="171" font-size="11" text-anchor="start" fill="#0066cc" font-style="italic" font-family="Verdana, sans-serif">BOOL</text>
<text x="214" y="171" font-size="11" text-anchor="start" fill="#666666" font-family="Verdana, sans-serif">CV &gt;=PV</text>
<path d="M105,189 L105,199 L110,194 Z" fill="#0066cc" stroke="none" />
<text x="97" y="198" font-size="12" text-anchor="end" font-family="Consolas, monospace">QD</text>
<text x="144" y="197" font-size="11" text-anchor="start" fill="#0066cc" font-style="italic" font-family="Verdana, sans-serif">BOOL</text>
<text x="214" y="197" font-size="11" text-anchor="start" fill="#666666" font-family="Verdana, sans-serif">CV &lt;= 0</text>
<path d="M105,215 L105,225 L110,220 Z" fill="#0066cc" stroke="none" />
<text x="97" y="224" font-size="12" text-anchor="end" font-family="Consolas, monospace">CV</text>
<text x="144" y="223" font-size="11" text-anchor="start" fill="#0066cc" font-style="italic" font-family="Verdana, sans-serif">UINT</text>
<text x="214" y="223" font-size="11" text-anchor="start" fill="#666666" font-family="Verdana, sans-serif">Counter Value</text>
<path d="M-12,54 L-12,168" stroke="#404040" stroke-width="1" />
<path d="M0,54 L-12,54" stroke="#404040" />
<rect x="-14" y="52" width="4" height="4" fill="white" stroke="black" stroke-width="1" />
<path d="M-12,168 L10,168" stroke="#404040" />
<rect x="-14" y="166" width="4" height="4" fill="white" stroke="black" stroke-width="1" />
<path d="M-20,132 L-20,168" stroke="#404040" stroke-width="1" />
<path d="M0,132 L-20,132" stroke="#404040" />
<rect x="-22" y="130" width="4" height="4" fill="white" stroke="black" stroke-width="1" />
<path d="M-20,168 L10,168" stroke="#404040" />
<rect x="-22" y="166" width="4" height="4" fill="white" stroke="black" stroke-width="1" />
<path d="M132,54 L132,220" stroke="#404040" stroke-width="1" />
<path d="M120,54 L132,54" stroke="#404040" />
<rect x="130" y="52" width="4" height="4" fill="white" stroke="black" stroke-width="1" />
<path d="M110,168 L132,168" stroke="#404040" />
<rect x="130" y="166" width="4" height="4" fill="white" stroke="black" stroke-width="1" />
<path d="M110,220 L132,220" stroke="#404040" />
<rect x="130" y="218" width="4" height="4" fill="white" stroke="black" stroke-width="1" />
<path d="M110,194 L132,194" stroke="#404040" />
<rect x="130" y="192" width="4" height="4" fill="white" stroke="black" stroke-width="1" />
<path d="M140,80 L140,220" stroke="#404040" stroke-width="1" />
<path d="M120,80 L140,80" stroke="#404040" />
<rect x="138" y="78" width="4" height="4" fill="white" stroke="black" stroke-width="1" />
<path d="M110,168 L140,168" stroke="#404040" />
<rect x="138" y="166" width="4" height="4" fill="white" stroke="black" stroke-width="1" />
<path d="M110,220 L140,220" stroke="#404040" />
<rect x="138" y="218" width="4" height="4" fill="white" stroke="black" stroke-width="1" />
<path d="M110,194 L140,194" stroke="#404040" />
<rect x="138" y="192" width="4" height="4" fill="white" stroke="black" stroke-width="1" />
<path d="M148,106 L148,220" stroke="#404040" stroke-width="1" />
<path d="M120,106 L148,106" stroke="#404040" />
<rect x="146" y="104" width="4" height="4" fill="white" stroke="black" stroke-width="1" />
<path d="M110,168 L148,168" stroke="#404040" />
<rect x="146" y="166" width="4" height="4" fill="white" stroke="black" stroke-width="1" />
<path d="M110,194 L148,194" stroke="#404040" />
<rect x="146" y="192" width="4" height="4" fill="white" stroke="black" stroke-width="1" />
<path d="M110,220 L148,220" stroke="#404040" />
<rect x="146" y="218" width="4" height="4" fill="white" stroke="black" stroke-width="1" />
</svg>