<?xml version="1.0" encoding="UTF-8"?>
<svg xmlns="http://www.w3.org/2000/svg" xmlns:xlink="http://www.w3.org/1999/xlink"
     width="750" height="313" viewBox="-306 -20 750 313">
<defs>
</defs>
<path d="M0,0 H130 V136 H124 V176 H130 V263 H0 V176 H6 V136 H0 Z" fill="#f2f2f2" stroke="#404040" stroke-width="2" />
<path d="M0,30 L130,30" stroke="#404040" stroke-width="1" />
<text x="65.0" y="154.0" font-size="14" fontWeight="bold" font-family="Verdana, sans-serif" fill="#000000" text-anchor="middle" dominant-baseline="central">E_CTUD</text>
<text x="65.0" y="168.0" font-size="10" fill="#888" font-family="Consolas, monospace" text-anchor="middle" dominant-baseline="central">3.0</text>
<path d="M-5,37 L-5,47 L0,42 Z" fill="#5cb85c" stroke="none" />
<text x="8" y="46" font-size="12" text-anchor="start" font-family="Consolas, monospace">CU</text>
<text x="-31" y="45" font-size="11" text-anchor="end" fill="#888" font-style="italic" font-family="Verdana, sans-serif">Event</text>
<text x="-101" y="45" font-size="11" text-anchor="end" fill="#666666" font-family="Verdana, sans-serif">Count Up</text>
<path d="M-5,61 L-5,71 L0,66 Z" fill="#5cb85c" stroke="none" />
<text x="8" y="70" font-size="12" text-anchor="start" font-family="Consolas, monospace">CD</text>
<text x="-31" y="69" font-size="11" text-anchor="end" fill="#888" font-style="italic" font-family="Verdana, sans-serif">Event</text>
<text x="-101" y="69" font-size="11" text-anchor="end" fill="#666666" font-family="Verdana, sans-serif">Count Down</text>
<path d="M-5,85 L-5,95 L0,90 Z" fill="#5cb85c" stroke="none" />
<text x="8" y="94" font-size="12" text-anchor="start" font-family="Consolas, monospace">R</text>
<text x="-31" y="93" font-size="11" text-anchor="end" fill="#888" font-style="italic" font-family="Verdana, sans-serif">Event</text>
<text x="-101" y="93" font-size="11" text-anchor="end" fill="#666666" font-family="Verdana, sans-serif">Reset</text>
<path d="M-5,109 L-5,119 L0,114 Z" fill="#5cb85c" stroke="none" />
<text x="8" y="118" font-size="12" text-anchor="start" font-family="Consolas, monospace">LD</text>
<text x="-31" y="117" font-size="11" text-anchor="end" fill="#888" font-style="italic" font-family="Verdana, sans-serif">Event</text>
<text x="-101" y="117" font-size="11" text-anchor="end" fill="#666666" font-family="Verdana, sans-serif">Load</text>
<path d="M-5,188 L-5,198 L0,193 Z" fill="#0066cc" stroke="none" />
<text x="8" y="197" font-size="12" text-anchor="start" font-family="Consolas, monospace">PV</text>
<text x="-31" y="196" font-size="11" text-anchor="end" fill="#0066cc" font-style="italic" font-family="Verdana, sans-serif">UINT</text>
<text x="-101" y="196" font-size="11" text-anchor="end" fill="#666666" font-family="Verdana, sans-serif">Preset Value</text>
<path d="M130,37 L130,47 L135,42 Z" fill="#5cb85c" stroke="none" />
<text x="122" y="46" font-size="12" text-anchor="end" font-family="Consolas, monospace">CO</text>
<text x="169" y="45" font-size="11" text-anchor="start" fill="#888" font-style="italic" font-family="Verdana, sans-serif">Event</text>
<text x="239" y="45" font-size="11" text-anchor="start" fill="#666666" font-family="Verdana, sans-serif">Count Output Event</text>
<path d="M130,61 L130,71 L135,66 Z" fill="#5cb85c" stroke="none" />
<text x="122" y="70" font-size="12" text-anchor="end" font-family="Consolas, monospace">RO</text>
<text x="169" y="69" font-size="11" text-anchor="start" fill="#888" font-style="italic" font-family="Verdana, sans-serif">Event</text>
<text x="239" y="69" font-size="11" text-anchor="start" fill="#666666" font-family="Verdana, sans-serif">Reset Output Event</text>
<path d="M130,85 L130,95 L135,90 Z" fill="#5cb85c" stroke="none" />
<text x="122" y="94" font-size="12" text-anchor="end" font-family="Consolas, monospace">LDO</text>
<text x="169" y="93" font-size="11" text-anchor="start" fill="#888" font-style="italic" font-family="Verdana, sans-serif">Event</text>
<path d="M130,188 L130,198 L135,193 Z" fill="#0066cc" stroke="none" />
<text x="122" y="197" font-size="12" text-anchor="end" font-family="Consolas, monospace">QU</text>
<text x="169" y="196" font-size="11" text-anchor="start" fill="#0066cc" font-style="italic" font-family="Verdana, sans-serif">BOOL</text>
<text x="239" y="196" font-size="11" text-anchor="start" fill="#666666" font-family="Verdana, sans-serif">CV &gt;=PV</text>
<path d="M130,212 L130,222 L135,217 Z" fill="#0066cc" stroke="none" />
<text x="122" y="221" font-size="12" text-anchor="end" font-family="Consolas, monospace">QD</text>
<text x="169" y="220" font-size="11" text-anchor="start" fill="#0066cc" font-style="italic" font-family="Verdana, sans-serif">BOOL</text>
<text x="239" y="220" font-size="11" text-anchor="start" fill="#666666" font-family="Verdana, sans-serif">CV &lt;= 0</text>
<path d="M130,236 L130,246 L135,241 Z" fill="#0066cc" stroke="none" />
<text x="122" y="245" font-size="12" text-anchor="end" font-family="Consolas, monospace">CV</text>
<text x="169" y="244" font-size="11" text-anchor="start" fill="#0066cc" font-style="italic" font-family="Verdana, sans-serif">UINT</text>
<text x="239" y="244" font-size="11" text-anchor="start" fill="#666666" font-family="Verdana, sans-serif">Counter Value</text>
<path d="M-12,42 L-12,193" stroke="#404040" stroke-width="1" />
<path d="M0,42 L-12,42" stroke="#404040" />
<rect x="-14" y="40" width="4" height="4" fill="white" stroke="black" stroke-width="1" />
<path d="M-12,193 L-5,193" stroke="#404040" />
<rect x="-14" y="191" width="4" height="4" fill="white" stroke="black" stroke-width="1" />
<path d="M-20,114 L-20,193" stroke="#404040" stroke-width="1" />
<path d="M0,114 L-20,114" stroke="#404040" />
<rect x="-22" y="112" width="4" height="4" fill="white" stroke="black" stroke-width="1" />
<path d="M-20,193 L-5,193" stroke="#404040" />
<rect x="-22" y="191" width="4" height="4" fill="white" stroke="black" stroke-width="1" />
<path d="M142,42 L142,241" stroke="#404040" stroke-width="1" />
<path d="M130,42 L142,42" stroke="#404040" />
<rect x="140" y="40" width="4" height="4" fill="white" stroke="black" stroke-width="1" />
<path d="M135,193 L142,193" stroke="#404040" />
<rect x="140" y="191" width="4" height="4" fill="white" stroke="black" stroke-width="1" />
<path d="M135,241 L142,241" stroke="#404040" />
<rect x="140" y="239" width="4" height="4" fill="white" stroke="black" stroke-width="1" />
<path d="M135,217 L142,217" stroke="#404040" />
<rect x="140" y="215" width="4" height="4" fill="white" stroke="black" stroke-width="1" />
<path d="M150,66 L150,241" stroke="#404040" stroke-width="1" />
<path d="M130,66 L150,66" stroke="#404040" />
<rect x="148" y="64" width="4" height="4" fill="white" stroke="black" stroke-width="1" />
<path d="M135,193 L150,193" stroke="#404040" />
<rect x="148" y="191" width="4" height="4" fill="white" stroke="black" stroke-width="1" />
<path d="M135,241 L150,241" stroke="#404040" />
<rect x="148" y="239" width="4" height="4" fill="white" stroke="black" stroke-width="1" />
<path d="M135,217 L150,217" stroke="#404040" />
<rect x="148" y="215" width="4" height="4" fill="white" stroke="black" stroke-width="1" />
<path d="M158,90 L158,241" stroke="#404040" stroke-width="1" />
<path d="M130,90 L158,90" stroke="#404040" />
<rect x="156" y="88" width="4" height="4" fill="white" stroke="black" stroke-width="1" />
<path d="M135,193 L158,193" stroke="#404040" />
<rect x="156" y="191" width="4" height="4" fill="white" stroke="black" stroke-width="1" />
<path d="M135,217 L158,217" stroke="#404040" />
<rect x="156" y="215" width="4" height="4" fill="white" stroke="black" stroke-width="1" />
<path d="M135,241 L158,241" stroke="#404040" />
<rect x="156" y="239" width="4" height="4" fill="white" stroke="black" stroke-width="1" />
</svg>